<?xml version="1.0" encoding="UTF-8" standalone="no"?>
<!-- Created with Inkscape (http://www.inkscape.org/) -->

<svg
   width="512"
   height="512"
   viewBox="0 0 512 512"
   version="1.1"
   id="svg1"
   inkscape:export-filename="bitmap.svg"
   inkscape:export-xdpi="96"
   inkscape:export-ydpi="96"
   inkscape:version="1.4.2 (ebf0e94, 2025-05-08)"
   sodipodi:docname="drawing.svg"
   xmlns:inkscape="http://www.inkscape.org/namespaces/inkscape"
   xmlns:sodipodi="http://sodipodi.sourceforge.net/DTD/sodipodi-0.dtd"
   xmlns="http://www.w3.org/2000/svg"
   xmlns:svg="http://www.w3.org/2000/svg">
  <sodipodi:namedview
     id="namedview1"
     pagecolor="#505050"
     bordercolor="#eeeeee"
     borderopacity="1"
     inkscape:showpageshadow="0"
     inkscape:pageopacity="0"
     inkscape:pagecheckerboard="0"
     inkscape:deskcolor="#505050"
     inkscape:document-units="px"
     inkscape:zoom="2"
     inkscape:cx="140"
     inkscape:cy="271.75"
     inkscape:window-width="2560"
     inkscape:window-height="1412"
     inkscape:window-x="0"
     inkscape:window-y="0"
     inkscape:window-maximized="1"
     inkscape:current-layer="layer1">
    <inkscape:page
       x="0"
       y="0"
       width="512"
       height="512"
       id="page2"
       margin="0"
       bleed="0" />
  </sodipodi:namedview>
  <defs
     id="defs1" />
  <circle
     style="fill:#000000;fill-opacity:1;stroke-width:1.22784"
     id="path45"
     cx="256"
     cy="256"
     r="256" />
  <g
     inkscape:label="Layer 1"
     inkscape:groupmode="layer"
     id="layer1">
    <path
       d="m 191.3793,43.625772 c -16.76026,0 -32.00371,2.581103 -45.74716,7.610786 -13.4082,4.692894 -23.96141,11.178689 -31.67111,19.558875 C 106.25132,79.17562 102.422,88.9497 102.422,100.01156 c 0,5.6985 1.63839,10.15122 4.9921,13.50293 3.35205,3.35205 7.88655,5.07412 13.58506,5.07412 3.01681,0 6.06678,-0.54933 9.08403,-1.5545 3.01682,-1.00583 5.36161,-2.33385 7.03768,-4.00992 0,-17.43062 4.13981,-30.64066 12.5212,-39.69131 8.38008,-9.38568 20.26152,-14.076024 35.68094,-14.076024 12.73783,0 22.11855,4.139682 28.15227,12.521081 6.03363,8.044943 9.08405,21.024963 9.08405,38.790923 v 33.63535 l -59.3322,13.58506 c -24.47008,5.6985 -42.91934,14.61121 -55.32195,26.67858 -12.06747,12.06748 -18.08606,27.62262 -18.08606,46.72943 0,15.41941 5.23925,27.85009 15.63064,37.23588 10.39139,9.05055 23.44557,13.58505 39.20021,13.58505 15.41953,0 29.95779,-3.36046 43.70123,-10.06621 13.74346,-7.03935 25.31299,-16.96894 34.69921,-29.70678 h 2.04481 c 0,8.35797 1.24855,15.5368 3.84645,21.44144 1.36174,3.0923 3.07971,5.84516 5.15591,8.26534 2.09919,2.32964 4.53694,4.20844 7.2015,5.72867 l 11.53902,2.94563 -11.45691,-2.86605 c 3.56991,2.01961 7.61001,3.35626 12.19348,3.92614 l 49.92088,69.97086 -53.60353,71.1985 -20.05029,6.38312 c -4.47548,1.11879 -6.7104,6.1887 -6.7104,15.14 h 64.65146 c 3.07551,-1.11879 5.0529,-2.70678 5.89215,-4.66482 1.11868,-2.23747 1.63828,-5.84938 1.63828,-10.88413 l -21.52312,-5.64688 41.00066,-55.64967 41.0003,57.53178 -14.73058,4.17329 c -4.47549,1.11879 -6.7104,6.1888 -6.7104,15.13998 h 79.30004 c 3.07551,-1.95671 5.05322,-3.93443 5.89248,-5.89247 1.11868,-2.23747 1.63828,-5.46086 1.63828,-9.65648 l -26.51522,-6.62905 -54.01249,-75.45404 50.24773,-67.35206 17.75878,-5.81034 c 4.47581,-1.39943 6.71084,-6.38688 6.71084,-15.05821 h -65.06088 c -2.79486,1.11868 -4.77335,2.75287 -5.89214,4.992 -0.83781,1.95682 -1.22766,5.4404 -1.22766,10.47516 l 23.32366,5.72868 -37.56316,50.73925 -37.5636,-52.45755 -2.94563,-4.00993 c 6.12669,-3.36046 11.30857,-7.56723 15.5494,-12.60288 l -0.73724,-2.86605 -2.78226,-10.72067 c -3.01682,2.34645 -6.84614,4.53573 -11.53904,6.54694 -4.35765,2.0112 -8.34281,3.0294 -12.0301,3.0294 -4.35767,0 -7.71934,-1.56709 -10.06578,-4.58302 -2.34644,-3.01692 -3.51972,-7.31335 -3.51972,-13.01184 V 121.61172 c 0,-27.15165 -5.86275,-46.92916 -17.59499,-59.331756 C 234.32439,49.877369 216.18693,43.62113 191.38161,43.62113 Z m 31.67111,116.208638 v 68.41635 c -6.82359,8.77279 -15.03189,15.79489 -24.63343,21.03204 -11.06176,6.03373 -22.63141,9.08415 -34.69876,9.08415 -11.06188,0 -19.7374,-3.36046 -26.10625,-10.06621 -6.36898,-7.03934 -9.57481,-16.41972 -9.57481,-28.15185 0,-12.40259 3.67469,-22.64444 11.04795,-30.68938 7.70981,-8.37974 18.81225,-14.24293 33.22605,-17.59498 z"
       style="font-size:10.0138px;font-family:Petrona;-inkscape-font-specification:Petrona;fill:#ffffff;fill-opacity:1;stroke-width:34.9654"
       id="path44" />
  </g>
</svg>
